<?xml version="1.0" encoding="UTF-8"?>
<svg viewBox="0 0 43 43" version="1.1" xmlns="http://www.w3.org/2000/svg" xmlns:xlink="http://www.w3.org/1999/xlink">
    <!-- Generator: Sketch 48.2 (47327) - http://www.bohemiancoding.com/sketch -->
    <title>github-icon</title>
    <desc>Created with Sketch.</desc>
    <defs></defs>
    <g id="footer_v2" stroke="none" stroke-width="1" fill="none" fill-rule="evenodd" transform="translate(-1257.000000, -279.000000)">
        <g id="footer">
            <g id="Group-22">
                <g id="social-icons" transform="translate(1131.000000, 279.000000)">
                    <g id="github-icon" transform="translate(126.000000, 0.000000)">
                        <rect id="Rectangle-6" stroke="#515151" transform="translate(21.109143, 21.109143) rotate(-225.000000) translate(-21.109143, -21.109143) " x="6.68272496" y="6.68272496" width="28.8528369" height="28.8528369"></rect>
                        <path d="M22.063375,25.869448 C22.063375,25.869448 21.3195,25.9595105 20.5,25.9595105 C19.6805,25.9595105 18.927,25.876323 18.927,25.876323 C17.0123125,25.6583855 15,24.9186355 15,21.615198 C15,20.6740105 15.3355,19.904698 15.886875,19.3017605 C15.798875,19.083823 15.5025625,18.2072605 15.9714375,17.019948 C15.9714375,17.019948 16.695375,16.7882605 18.342625,17.904073 C19.030125,17.712948 19.7678125,17.616698 20.5006875,17.613948 C21.232875,17.616698 21.9705625,17.712948 22.6594375,17.904073 C24.3053125,16.7882605 25.027875,17.019948 25.027875,17.019948 C25.498125,18.2072605 25.2025,19.083823 25.1138125,19.3017605 C25.665875,19.904698 26,20.6740105 26,21.615198 C26,24.9268855 23.98425,25.656323 22.063375,25.869448 L22.063375,25.869448 Z" id="Fill-119" fill="#FFFFFF"></path>
                    </g>
                </g>
            </g>
        </g>
    </g>
</svg>
