<?xml version="1.0" encoding="UTF-8"?>
<svg viewBox="0 0 43 43" version="1.1" xmlns="http://www.w3.org/2000/svg" xmlns:xlink="http://www.w3.org/1999/xlink">
    <!-- Generator: Sketch 48.2 (47327) - http://www.bohemiancoding.com/sketch -->
    <title>linked-in-icon</title>
    <desc>Created with Sketch.</desc>
    <defs></defs>
    <g id="footer_v2" stroke="none" stroke-width="1" fill="none" fill-rule="evenodd" transform="translate(-1194.000000, -279.000000)">
        <g id="footer">
            <g id="Group-22">
                <g id="social-icons" transform="translate(1131.000000, 279.000000)">
                    <g id="linked-in-icon" transform="translate(63.000000, 0.000000)">
                        <rect id="Rectangle-6" stroke="#515151" transform="translate(21.109143, 21.109143) rotate(-225.000000) translate(-21.109143, -21.109143) " x="6.68272496" y="6.68272496" width="28.8528369" height="28.8528369"></rect>
                        <path d="M26,25.9834963 L24.1350856,25.9834963 L24.1350856,23.0654907 C24.1350856,22.3695861 24.1232972,21.4744586 23.1660845,21.4744586 C22.1959046,21.4744586 22.0477646,22.2328414 22.0477646,23.0155868 L22.0477646,25.9834963 L20.1848149,25.9834963 L20.1848149,19.9828414 L21.9727122,19.9828414 L21.9727122,20.8033095 L21.9982536,20.8033095 C22.2469874,20.3313832 22.8552655,19.8339155 23.7625742,19.8339155 C25.6510653,19.8339155 26,21.0764059 26,22.6925864 L26,25.9834963 Z M18.0821691,19.1631593 C17.4829287,19.1631593 17,18.6786587 17,18.0813832 C17,17.4845005 17.4829287,17 18.0821691,17 C18.6786587,17 19.1631593,17.4845005 19.1631593,18.0813832 C19.1631593,18.6786587 18.6786587,19.1631593 18.0821691,19.1631593 L18.0821691,19.1631593 Z M19.0150192,25.9834963 L17.1481401,25.9834963 L17.1481401,19.9828414 L19.0150192,19.9828414 L19.0150192,25.9834963 Z" id="Fill-33" fill="#FFFFFF"></path>
                    </g>
                </g>
            </g>
        </g>
    </g>
</svg>
