<?xml version="1.0" encoding="UTF-8"?>
<svg viewBox="0 0 156 28" version="1.1" xmlns="http://www.w3.org/2000/svg" xmlns:xlink="http://www.w3.org/1999/xlink">
    <!-- Generator: Sketch 48.2 (47327) - http://www.bohemiancoding.com/sketch -->
    <title>logo</title>
    <desc>Created with Sketch.</desc>
    <defs>
        <polygon id="path-1" points="0 27.3170732 155.762579 27.3170732 155.762579 0.204878049 0 0.204878049"></polygon>
    </defs>
    <g id="madewithlove-/-Mobile-/-Homepage" stroke="none" stroke-width="1" fill="none" fill-rule="evenodd" transform="translate(-20.000000, -16.000000)">
        <g id="logo" transform="translate(20.000000, 16.000000)">
            <path d="M9.44005263,0.683063415 L0,10.1054049 L17.7231053,27.7952585 L26.0041053,19.5297951 L26.0047895,19.531161 L35.4455263,10.1081366 L26.0047895,0.685795122 L17.7244737,8.95125854 L9.44005263,0.683063415 Z M2.31468421,10.1054049 L9.44005263,2.99340488 L16.5838947,10.123161 L16.5818421,10.1252098 L24.8471053,18.3749659 L17.7231053,25.4849171 L2.31468421,10.1054049 Z M26.0047895,2.99613659 L33.1062105,10.0842341 L18.9033684,10.0842341 L26.0047895,2.99613659 Z" id="Fill-1" fill="#ED2724"></path>
            <g id="Group-20" transform="translate(0.000000, 0.478117)">
                <path d="M53.9478789,12.7204 L53.9478789,18.0267415 L51.7084579,18.0267415 L51.7084579,13.4429366 C51.7084579,12.2389366 51.0967737,11.5764976 50.0800368,11.5764976 C49.1153,11.5764976 48.3140895,12.2047902 48.3140895,13.4600098 L48.3140895,18.0267415 L46.0650895,18.0267415 L46.0650895,13.4429366 C46.0650895,12.2389366 45.4623,11.5764976 44.4373526,11.5764976 C43.4719316,11.5764976 42.6714053,12.2047902 42.6714053,13.4600098 L42.6714053,18.0267415 L40.4224053,18.0267415 L40.4224053,9.69366829 L42.6105105,9.69366829 L42.6105105,10.6743512 C43.2050895,9.78859512 44.1185105,9.47035122 45.0661421,9.47035122 C46.2717211,9.47035122 47.2624579,10.0119122 47.8228263,10.8976683 C48.4687211,9.83981463 49.5634579,9.47035122 50.6568263,9.47035122 C52.6218789,9.47035122 53.9478789,10.7856683 53.9478789,12.7204" id="Fill-2" fill="#231F20"></path>
                <path d="M58.0203684,13.855561 C58.0203684,15.1285366 58.8564737,16.151561 60.1742632,16.151561 C61.4578421,16.151561 62.3281579,15.171561 62.3281579,13.855561 C62.3281579,12.5402439 61.4578421,11.5602439 60.1742632,11.5602439 C58.8564737,11.5602439 58.0203684,12.5832683 58.0203684,13.855561 Z M64.4560526,18.0261951 L62.2590526,18.0261951 L62.2590526,17.1062927 C61.7164737,17.7769268 60.9070526,18.2413171 59.761,18.2413171 C57.4606842,18.2413171 55.7207368,16.3578049 55.7207368,13.855561 C55.7207368,11.3533171 57.4606842,9.4704878 59.761,9.4704878 C60.9070526,9.4704878 61.7082632,9.93487805 62.2590526,10.6137073 L62.2590526,9.69380488 L64.4560526,9.69380488 L64.4560526,18.0261951 Z" id="Fill-4" fill="#231F20"></path>
                <path d="M68.5989474,13.855561 C68.5989474,15.1285366 69.4343684,16.151561 70.7521579,16.151561 C72.0357368,16.151561 72.9060526,15.171561 72.9060526,13.855561 C72.9060526,12.5402439 72.0357368,11.5602439 70.7521579,11.5602439 C69.4343684,11.5602439 68.5989474,12.5832683 68.5989474,13.855561 M72.7945263,10.5624878 L72.7945263,5.64404878 L75.0339474,5.64404878 L75.0339474,18.0261951 L72.8369474,18.0261951 L72.8369474,17.1062927 C72.2943684,17.7769268 71.4849474,18.2413171 70.3388947,18.2413171 C68.0385789,18.2413171 66.2986316,16.3578049 66.2986316,13.855561 C66.2986316,11.3533171 68.0385789,9.4704878 70.3388947,9.4704878 C71.4589474,9.4704878 72.2519474,9.90892683 72.7945263,10.5624878" id="Fill-6" fill="#231F20"></path>
                <path d="M79.2021579,13.0732 L82.8982632,13.0732 C82.6916316,12.0064683 82.0450526,11.4054927 81.0803158,11.4054927 C80.0204737,11.4054927 79.4005789,12.0412976 79.2021579,13.0732 M85.1554737,13.847639 C85.1554737,14.1051024 85.1383684,14.4144683 85.1123684,14.603639 L79.1939474,14.603639 C79.4347895,15.807639 80.2791053,16.3321268 81.3389474,16.3321268 C82.0628421,16.3321268 82.8462632,16.0398341 83.4497368,15.5331024 L84.7682105,16.9774927 C83.8198947,17.8454927 82.6136316,18.2409073 81.2103158,18.2409073 C78.6506842,18.2409073 76.8765263,16.5042244 76.8765263,13.8817854 C76.8765263,11.2586634 78.5993684,9.47076098 81.0981053,9.47076098 C83.5010526,9.47076098 85.1465789,11.2504683 85.1554737,13.847639" id="Fill-8" fill="#231F20"></path>
                <polygon id="Fill-10" fill="#231F20" points="96.4658158 17.0287122 99.2142895 9.93446829 100.230342 9.93446829 97.0515 18.0264683 95.8972368 18.0264683 93.2267632 10.9574927 90.5733947 18.0264683 89.4273421 18.0264683 86.2478158 9.93446829 87.2905526 9.93446829 90.0308158 17.0198341 92.6923947 9.93446829 93.7953421 9.93446829"></polygon>
                <mask id="mask-2" fill="white">
                    <use xlink:href="#path-1"></use>
                </mask>
                <g id="Clip-13"></g>
                <path d="M102.235421,18.0265366 L103.217947,18.0265366 L103.217947,9.93453659 L102.235421,9.93453659 L102.235421,18.0265366 Z M103.432789,7.028 C103.432789,7.42341463 103.122842,7.72458537 102.726684,7.72458537 C102.330526,7.72458537 102.028789,7.42341463 102.028789,7.028 C102.028789,6.63258537 102.330526,6.31434146 102.726684,6.31434146 C103.122842,6.31434146 103.432789,6.63258537 103.432789,7.028 Z" id="Fill-12" fill="#231F20" mask="url(#mask-2)"></path>
                <path d="M111.831816,10.8290341 L108.093289,10.8290341 L108.093289,15.2400585 C108.093289,16.607278 108.817184,17.2348878 109.893447,17.2348878 C110.592026,17.2348878 111.229026,16.9944976 111.703184,16.6161561 L112.167763,17.3468878 C111.590289,17.8283512 110.789763,18.1554732 109.816816,18.1554732 C108.1275,18.1554732 107.111447,17.2178146 107.111447,15.2571317 L107.111447,10.8290341 L105.250395,10.8290341 L105.250395,9.9344 L107.111447,9.9344 L107.111447,7.2948878 L108.093289,7.2948878 L108.093289,9.9344 L111.831816,9.9344 L111.831816,10.8290341 Z" id="Fill-14" fill="#231F20" mask="url(#mask-2)"></path>
                <path d="M115.113221,11.3359024 C115.750905,10.2698537 116.888063,9.80546341 117.999221,9.80546341 C120.032011,9.80546341 121.410695,11.0613659 121.410695,13.0643902 L121.410695,18.0265366 L120.428853,18.0265366 L120.428853,13.365561 C120.428853,11.732 119.481221,10.7342439 117.8268,10.7342439 C116.301695,10.7342439 115.113221,11.8262439 115.113221,13.4174634 L115.113221,18.0265366 L114.130695,18.0265366 L114.130695,5.64370732 L115.113221,5.64370732 L115.113221,11.3359024 Z" id="Fill-15" fill="#231F20" mask="url(#mask-2)"></path>
                <polygon id="Fill-16" fill="#231F20" mask="url(#mask-2)" points="124.063105 18.0265366 126.311421 18.0265366 126.311421 5.64370732 124.063105 5.64370732"></polygon>
                <path d="M130.445832,13.855561 C130.445832,15.2057073 131.394147,16.151561 132.659937,16.151561 C133.926411,16.151561 134.882253,15.2057073 134.882253,13.855561 C134.882253,12.5054146 133.926411,11.5602439 132.659937,11.5602439 C131.394147,11.5602439 130.445832,12.5054146 130.445832,13.855561 M137.183253,13.855561 C137.183253,16.3666829 135.261305,18.2413171 132.659937,18.2413171 C130.066779,18.2413171 128.153726,16.3666829 128.153726,13.855561 C128.153726,11.344439 130.066779,9.4704878 132.659937,9.4704878 C135.261305,9.4704878 137.183253,11.344439 137.183253,13.855561" id="Fill-17" fill="#231F20" mask="url(#mask-2)"></path>
                <polygon id="Fill-18" fill="#231F20" mask="url(#mask-2)" points="143.642953 18.0264683 141.049795 18.0264683 137.750532 9.69407805 140.197268 9.69407805 142.359374 15.6614927 144.539268 9.69407805 146.908005 9.69407805"></polygon>
                <path d="M149.809537,13.0732 L153.505642,13.0732 C153.299011,12.0064683 152.653116,11.4054927 151.687695,11.4054927 C150.628537,11.4054927 150.007958,12.0412976 149.809537,13.0732 M155.762853,13.847639 C155.762853,14.1051024 155.745747,14.4144683 155.720432,14.603639 L149.801326,14.603639 C150.042853,15.807639 150.887168,16.3321268 151.946326,16.3321268 C152.670905,16.3321268 153.454326,16.0398341 154.057116,15.5331024 L155.375589,16.9774927 C154.427958,17.8454927 153.221695,18.2409073 151.817695,18.2409073 C149.258063,18.2409073 147.483905,16.5042244 147.483905,13.8817854 C147.483905,11.2586634 149.206747,9.47076098 151.705484,9.47076098 C154.108432,9.47076098 155.753958,11.2504683 155.762853,13.847639" id="Fill-19" fill="#231F20" mask="url(#mask-2)"></path>
            </g>
        </g>
    </g>
</svg>
