<?xml version="1.0" encoding="UTF-8"?>
<svg viewBox="0 0 43 43" version="1.1" xmlns="http://www.w3.org/2000/svg" xmlns:xlink="http://www.w3.org/1999/xlink">
    <!-- Generator: Sketch 48.2 (47327) - http://www.bohemiancoding.com/sketch -->
    <title>twitter-icon</title>
    <desc>Created with Sketch.</desc>
    <defs></defs>
    <g id="footer_v2" stroke="none" stroke-width="1" fill="none" fill-rule="evenodd" transform="translate(-1131.000000, -279.000000)">
        <g id="footer">
            <g id="Group-22">
                <g id="social-icons" transform="translate(1131.000000, 279.000000)">
                    <g id="twitter-icon">
                        <path d="M28.3114786,17.1842103 C27.858647,17.3850413 27.3715741,17.5208523 26.8606478,17.582025 C27.3823467,17.2692365 27.7828545,16.7744689 27.971374,16.1846722 C27.4835316,16.4739919 26.942596,16.6840565 26.3674192,16.797553 C25.9065082,16.3066328 25.2501525,16 24.5237752,16 C23.1287308,16 21.9979985,17.1307324 21.9979985,18.5257768 C21.9979985,18.7235299 22.020313,18.9162815 22.0634032,19.1013384 C19.9639114,18.9959214 18.1029544,17.9902275 16.8571867,16.4620652 C16.6398122,16.8352569 16.5151584,17.2692365 16.5151584,17.7320711 C16.5151584,18.6081098 16.9610648,19.3814245 17.6385808,19.8342561 C17.2246074,19.8211752 16.8352569,19.7076787 16.4947675,19.5183897 C16.4943828,19.5291623 16.4943828,19.5395501 16.4943828,19.5503226 C16.4943828,20.7741605 17.3650352,21.7948591 18.5207752,22.0268535 C18.308787,22.0845635 18.0856414,22.1153422 17.8551859,22.1153422 C17.6924436,22.1153422 17.534318,22.0995682 17.3800398,22.0703284 C17.7012924,23.0737139 18.6342717,23.8039385 19.7396116,23.8243294 C18.875115,24.5018454 17.7859339,24.9054311 16.602493,24.9054311 C16.3985841,24.9054311 16.1977531,24.8935043 16,24.8704203 C17.1176514,25.5867945 18.4453674,26.005 19.87196,26.005 C24.5180042,26.005 27.0584009,22.156124 27.0584009,18.8185591 C27.0584009,18.70891 27.0560925,18.6000304 27.0510909,18.4915355 C27.5447043,18.1356568 27.9729129,17.6909046 28.3114786,17.1842103" id="Fill-1" fill="#FFFFFF"></path>
                        <rect id="Rectangle-6" stroke="#515151" transform="translate(21.109143, 21.109143) rotate(-225.000000) translate(-21.109143, -21.109143) " x="6.68272496" y="6.68272496" width="28.8528369" height="28.8528369"></rect>
                    </g>
                </g>
            </g>
        </g>
    </g>
</svg>
